Coordinates	
version=1	
nRows=462	
nColumns=2	
inDegrees=yes	
endheader	
time	elbow_flexion
0	39.99999997
0.0029309	39.99208361
0.006974361	39.95530077
0.010328176	39.90221456
0.013681991	39.82886112
0.017035807	39.73543418
0.020389622	39.62217793
0.023175587	39.51316992
0.025961553	39.3907733
0.028747519	39.25511762
0.031533484	39.10635008
0.03431945	38.94461733
0.037105415	38.77007438
0.039891381	38.58288006
0.042677346	38.38319902
0.044801058	38.22270125
0.046924769	38.05512185
0.049758368	37.82063219
0.052591967	37.57385984
0.054669096	37.38527445
0.056746225	37.19026597
0.059669143	36.9051191
0.062277992	36.64017013
0.06488684	36.36553193
0.0671127	36.12366781
0.06933856	35.87495955
0.07156442	35.61950449
0.074543278	35.26724433
0.076993959	34.96868177
0.079444641	34.66235236
0.081895322	34.34839017
0.084346003	34.02692976
0.086796684	33.69810683
0.089247365	33.36205792
0.091698047	33.01892059
0.094148728	32.66883294
0.096599409	32.31193392
0.09905009	31.94836334
0.101500771	31.57826165
0.103951453	31.20176999
0.106402134	30.8190303
0.108597536	30.47097048
0.110792939	30.11811407
0.112988342	29.76056493
0.115938884	29.27282302
0.118404292	28.85910569
0.120869699	28.43992886
0.123335107	28.01544399
0.125800515	27.58580251
0.128265923	27.15115781
0.13073133	26.71166374
0.133196738	26.26747566
0.135662146	25.81874969
0.138127553	25.36564272
0.140315877	24.95991687
0.142504201	24.55097449
0.145185736	24.04564096
0.147867271	23.5358508
0.150133227	23.10174533
0.152399182	22.66473041
0.154665138	22.22493157
0.157564017	21.65843025
0.159959652	21.18717812
0.162355288	20.71328356
0.164750923	20.23689605
0.167146558	19.75816344
0.169542194	19.2772339
0.171937829	18.79425452
0.174333464	18.30937204
0.1767291	17.82273193
0.179607044	17.23599744
0.181849509	16.77736655
0.184091975	16.31759023
0.18633444	15.85678499
0.189465706	15.21183578
0.191658003	14.7593938
0.193850299	14.30633585
0.196670757	13.72272697
0.199164279	13.20624134
0.2016578	12.6894203
0.204151321	12.17241813
0.206644842	11.65539759
0.208878234	11.19244412
0.211111627	10.72976935
0.213345019	10.26755442
0.216411	9.634178104
0.218776948	9.146715602
0.221142896	8.660810691
0.223508844	8.17694142
0.225874792	7.695683515
0.22824074	7.217728846
0.231086302	6.648430481
0.233372383	6.196537164
0.235658463	5.750632386
0.237944544	5.311904302
0.240853418	4.766159274
0.24319125	4.339670634
0.245529083	3.925936615
0.247866915	3.526953223
0.250204747	3.144843354
0.25311608	2.696027613
0.255050957	2.416378635
0.256985833	2.153219944
0.259877761	1.793573317
0.262333803	1.522767922
0.264789845	1.286495545
0.266831555	1.118089792
0.268873266	0.976386738
0.271499555	0.835029902
0.274125845	0.741256756
0.276272422	0.70074355
0.278419	0.693026286
0.281141215	0.730321942
0.28386343	0.819456657
0.286161534	0.933876405
0.288459638	1.082704456
0.290757742	1.26428206
0.294021454	1.574623214
0.296751846	1.87753647
0.299482239	2.215720644
0.302212631	2.585171414
0.304943023	2.981820825
0.307673416	3.401761477
0.309734963	3.73194215
0.31179651	4.071715252
0.31469125	4.562255363
0.317585991	5.065225397
0.319653163	5.430196322
0.321720335	5.79878723
0.324622949	6.320655716
0.327222647	6.790660606
0.329822346	7.261659596
0.332127764	7.679213681
0.334433182	8.095910385
0.3367386	8.511152477
0.339044018	8.924435341
0.34195402	9.442650957
0.344304994	9.85806207
0.346655969	10.27023778
0.349006943	10.67892636
0.351357918	11.08391622
0.353708892	11.48502813
0.356628607	11.97755284
0.358981005	12.36969416
0.361333402	12.75753528
0.3636858	13.14097479
0.366038198	13.51991617
0.368875082	13.97078763
0.371168058	14.33022793
0.373461035	14.68512148
0.375754012	15.03538786
0.378662297	15.47286619
0.381023638	15.82239281
0.383384979	16.16674184
0.38574632	16.50583325
0.388107662	16.8395887
0.390469003	17.16793217
0.393345938	17.56054809
0.395682946	17.87339661
0.398019954	18.18071914
0.400356962	18.4824509
0.40269397	18.77852894
0.405554898	19.13319701
0.407850096	19.41146808
0.410145293	19.684105
0.412440491	19.95105666
0.415376391	20.28416207
0.417612156	20.53147663
0.419847921	20.77325155
0.422562027	21.05925343
0.425276133	21.33696694
0.427420959	21.55052589
0.429565785	21.75884015
0.432366666	22.02293102
0.435167547	22.27797359
0.437229741	22.45993828
0.439291935	22.63694968
0.44214639	22.87375896
0.444763694	23.0824852
0.447380998	23.2831353
0.449686425	23.4531644
0.451991853	23.61688929
0.45429728	23.77429494
0.4571318	23.95914452
0.459466396	24.10418837
0.461800992	24.24271466
0.464135588	24.37471572
0.466470184	24.50018566
0.469419423	24.64934608
0.471632417	24.75441903
0.473845411	24.85361784
0.476607236	24.96918089
0.479369062	25.07560372
0.481439105	25.14938271
0.483509148	25.21803771
0.486411748	25.3056883
0.489314349	25.38329899
0.491347977	25.43170721
0.493381606	25.47520975
0.496344154	25.52982784
0.498955421	25.56938843
0.501566689	25.60094323
0.503873939	25.62219421
0.506181189	25.63725672
0.508488439	25.64616222
0.510795689	25.6489425
0.513719979	25.64371563
0.516047935	25.63260286
0.518375892	25.61536641
0.520703848	25.59204357
0.523526074	25.55566263
0.525856971	25.51896453
0.528187868	25.47629477
0.530518765	25.42769699
0.532849662	25.37321625
0.535685471	25.29906882
0.538065554	25.23023225
0.540445638	25.15542384
0.542825721	25.07469778
0.545205805	24.98810969
0.547585889	24.89571652
0.549965972	24.79757664
0.552822976	24.67226633
0.555112941	24.5659818
0.557402906	24.45455648
0.559692871	24.3380472
0.562604649	24.18265042
0.564911547	24.05384595
0.567218446	23.92007873
0.569525345	23.78141148
0.572356519	23.60462697
0.57468944	23.45356492
0.577022362	23.29770636
0.579355284	23.13712051
0.582157487	22.93808155
0.584444534	22.77073998
0.586731582	22.59907311
0.589018629	22.42314976
0.591901973	22.19540042
0.594226425	22.00704821
0.596550877	21.81453788
0.59887533	21.61794524
0.601199782	21.41734675
0.604145578	21.15749235
0.606525058	20.9430955
0.608904538	20.72476953
0.611284017	20.50259954
0.613663497	20.27667108
0.616042977	20.04707034
0.618422456	19.81388398
0.620801936	19.57719918
0.6237693	19.27726922
0.626076029	19.04055861
0.628382758	18.80082626
0.630689488	18.55815315
0.632996217	18.31262048
0.635998407	17.98891284
0.638227654	17.74560854
0.640456901	17.49988205
0.643225901	17.19139779
0.645687116	16.91427593
0.648148331	16.6345031
0.650609546	16.35217899
0.653070761	16.06740311
0.655531976	15.78027503
0.657993191	15.49089419
0.660454406	15.19935997
0.662915621	14.9057716
0.665129199	14.64005012
0.667342776	14.37281895
0.669556354	14.10414981
0.672518911	13.74244878
0.674988386	13.43920146
0.677457861	13.13447041
0.679927336	12.82835509
0.682396812	12.52095471
0.684866287	12.21237112
0.687335762	11.90270896
0.689805237	11.59207849
0.692013941	11.31352479
0.694222646	11.03438145
0.696431351	10.75475182
0.699560781	10.35794668
0.701784179	10.07576851
0.704007578	9.793542891
0.706726862	9.448548292
0.709446146	9.104066156
0.711651039	8.825387923
0.713855932	8.547531918
0.716592279	8.204237559
0.719328626	7.863165401
0.721433697	7.602683602
0.723538768	7.344206244
0.726382226	6.998867263
0.729225684	6.658768468
0.731305613	6.413912323
0.733385543	6.172865086
0.736315828	5.840654573
0.738905058	5.555325594
0.741494288	5.278804071
0.743762575	5.044679217
0.746030861	4.818955982
0.748299148	4.602439634
0.75122492	4.338089787
0.753561586	4.140140232
0.755898252	3.954865413
0.758234918	3.783149967
0.760571583	3.625847187
0.763488473	3.450937295
0.765732887	3.333415626
0.767977302	3.231390363
0.770736312	3.127962496
0.773195586	3.056813071
0.77565486	3.005938485
0.778114135	2.975618881
0.780573409	2.965981883
0.783032683	2.977006189
0.785491957	3.008513449
0.787951232	3.060179201
0.790410506	3.131531669
0.792611841	3.211608095
0.794813177	3.306460438
0.797014513	3.415503073
0.799967787	3.582941308
0.802443692	3.740856311
0.804919597	3.913632541
0.807395502	4.100155549
0.809871407	4.299284983
0.812347312	4.509871567
0.814823218	4.730771465
0.817299123	4.960860064
0.819503247	5.172534932
0.821707371	5.389878358
0.824363791	5.658339746
0.827020211	5.932807049
0.829288355	6.171071243
0.831556498	6.412257093
0.833824641	6.655762171
0.836651086	6.961608864
0.839055135	7.223159174
0.841459183	7.485419705
0.843863232	7.747888899
0.84626728	8.010112854
0.848671328	8.271682496
0.851075377	8.532230404
0.853479425	8.791427537
0.855883474	9.048979983
0.858287522	9.3046258
0.86069157	9.558132106
0.863095619	9.809292233
0.866026106	10.11201416
0.868250264	10.33908393
0.870474422	10.5637097
0.873212973	10.83678169
0.875951525	11.10583185
0.878041815	11.30839572
0.880132106	11.50847305
0.883008456	11.7796321
0.885884805	12.04586889
0.887925097	12.23167667
0.889965388	12.41491915
0.892868337	12.67115263
0.895771287	12.92203785
0.897868799	13.09993816
0.899966311	13.27497287
0.90289666	13.51465381
0.905476564	13.72093484
0.908056467	13.92272916
0.910355998	14.09877307
0.912655528	14.27118224
0.914955058	14.43992547
0.917720325	14.63794774
0.920128405	14.80599876
0.922536485	14.96992692
0.924944566	15.12970221
0.927352646	15.28529599
0.929760726	15.43668109
0.932168806	15.58383182
0.934576887	15.72672403
0.936984967	15.86533499
0.939393047	15.99964347
0.941801128	16.12962967
0.944209208	16.25527526
0.946617288	16.37656339
0.949025368	16.49347863
0.951433449	16.60600704
0.954332665	16.73564823
0.956587586	16.83205824
0.958842507	16.92459144
0.961571863	17.03139818
0.964025169	17.12253914
0.966478475	17.20907036
0.968931781	17.29098807
0.971385088	17.36829
0.973838394	17.44097539
0.9762917	17.50904501
0.978745006	17.5725011
0.981198312	17.6313474
0.983651618	17.68558913
0.986104924	17.73523296
0.988312219	17.77597589
0.990519513	17.81301032
0.992726808	17.84634409
0.995811691	17.88674763
0.998214122	17.91323557
1.000616552	17.93538066
1.003018983	17.95319843
1.005421413	17.9667056
1.007823843	17.97592019
1.010226274	17.98086141
1.012628704	17.9815497
1.015031135	17.97800671
1.017433565	17.97025524
1.019835995	17.95831931
1.022238426	17.94222404
1.024640856	17.92199574
1.027581181	17.89165388
1.029795569	17.86477506
1.032009957	17.83446126
1.034789512	17.79158585
1.037188565	17.75029671
1.039587618	17.70507375
1.041986671	17.65595082
1.044385724	17.60296278
1.046784777	17.54614545
1.04918383	17.48553562
1.051582883	17.421171
1.053981936	17.3530902
1.056861934	17.26650847
1.059102273	17.19553773
1.061342612	17.12143681
1.064088517	17.02639493
1.066534741	16.93786096
1.068980964	16.84573374
1.071427188	16.75006062
1.073873412	16.65088979
1.076319635	16.5482702
1.078765859	16.44225155
1.081212083	16.33288427
1.083658307	16.22021953
1.08610453	16.1043092
1.088550754	15.98520581
1.090996978	15.86296254
1.093443202	15.73763318
1.095889425	15.60927214
1.098335649	15.47793439
1.100781873	15.34367545
1.103228097	15.20655138
1.10567432	15.06661878
1.107871382	14.93859208
1.110068444	14.80838744
1.112265506	14.67604679
1.115398462	14.48372096
1.117654196	14.34267885
1.119909931	14.19953967
1.122735979	14.01732271
1.125113078	13.86162837
1.127490177	13.7037771
1.129867276	13.54382422
1.132244374	13.38182528
1.134621473	13.21783615
1.136998572	13.05191323
